# xmcd
#
# Track frame offsets:
#	150
#	16651
#	30766
#	46428
#	63857
#	77942
#	91102
#	109717
#	123700
#	136705
#	154043
#	167975
#	189590
#	210337
#	225534
#	243034
#	258842
#	271952
#	287834
#	303562
#	319187
#	333340
#
# Disc length: 4648 seconds
#
# Revision: 1
# Processed by: cddbd v1.5.1PL0 Copyright (c) Steve Scherf et al.
# Submitted via: EasyCDDAExtractor 6.5.7.1
#
DISCID=1c122616
DTITLE=Oswaldir e Carlos Magrão
DYEAR=1900
DGENRE=Gaúcha
TTITLE0=Herança Nativa
TTITLE1=Tempero de Amor
TTITLE2=De Barretos a Vacaria
TTITLE3=Mocinho Aventureiro
TTITLE4=Não Chore Não
TTITLE5=Gaúcho de Passo Fundo
TTITLE6=Lago Verde-Azul
TTITLE7=Pé de Bode
TTITLE8=Uma Gauderiada
TTITLE9=Adeus Mariana
TTITLE10=Madrugando
TTITLE11=Minha Querência
TTITLE12=Minha Criança
TTITLE13=Outras Fronteiras
TTITLE14=Querência Amada
TTITLE15=Nós
TTITLE16=Xote do Camioneiro
TTITLE17=Tropa de Osso
TTITLE18=Eu Sou Do Sul
TTITLE19=Xucros Desejos
TTITLE20=Roda de Chimarrão
TTITLE21=Canção do Rádio
EXTD=
EXTT0=
EXTT1=
EXTT2=
EXTT3=
EXTT4=
EXTT5=
EXTT6=
EXTT7=
EXTT8=
EXTT9=
EXTT10=
EXTT11=
EXTT12=
EXTT13=
EXTT14=
EXTT15=
EXTT16=
EXTT17=
EXTT18=
EXTT19=
EXTT20=
EXTT21=
PLAYORDER=
